<svg xmlns="http://www.w3.org/2000/svg" viewBox="0 0 128 128" width="128" height="128">
  <defs>
    <linearGradient id="gearGradient" x1="0%" y1="0%" x2="100%" y2="100%">
      <stop offset="0%" style="stop-color:#4a90e2;stop-opacity:1" />
      <stop offset="100%" style="stop-color:#357abd;stop-opacity:1" />
    </linearGradient>
  </defs>
  <path fill="url(#gearGradient)" d="M64 20c-2.4 0-4.8.8-6.4 2.4l-5.6 5.6c-.8.8-2.4.8-3.2 0l-6.4-3.2c-2.4-1.6-5.6-.8-7.2 1.6l-4 7.2c-1.6 2.4-.8 5.6 1.6 7.2l6.4 3.2c.8.8 1.6 1.6.8 3.2l-1.6 7.2c-.8 2.4.8 4.8 3.2 5.6l8 1.6c2.4.8 4.8-.8 5.6-3.2l1.6-7.2c0-.8.8-1.6 1.6-1.6h3.2c.8 0 1.6.8 1.6 1.6l1.6 7.2c.8 2.4 3.2 4 5.6 3.2l8-1.6c2.4-.8 4-3.2 3.2-5.6l-1.6-7.2c0-.8 0-2.4.8-3.2l6.4-3.2c2.4-1.6 3.2-4.8 1.6-7.2l-4-7.2c-1.6-2.4-4.8-3.2-7.2-1.6l-6.4 3.2c-.8.8-2.4.8-3.2 0l-5.6-5.6c-1.6-1.6-4-2.4-6.4-2.4zm0 24c11.2 0 20 8.8 20 20s-8.8 20-20 20-20-8.8-20-20 8.8-20 20-20zm0 12c-4.8 0-8 3.2-8 8s3.2 8 8 8 8-3.2 8-8-3.2-8-8-8z"/>
  <circle cx="64" cy="64" r="6" fill="#ffffff" opacity="0.9"/>
</svg>