<svg xmlns="http://www.w3.org/2000/svg" viewBox="0 0 16 16" width="16" height="16">
  <path fill="#5a5a5a" d="M8 2.5c-.3 0-.6.1-.8.3l-.7.7c-.1.1-.3.1-.4 0l-.8-.4c-.3-.2-.7-.1-.9.2l-.5.9c-.2.3-.1.7.2.9l.8.4c.1.1.2.2.1.4l-.2.9c-.1.3.1.6.4.7l1 .2c.3.1.6-.1.7-.4l.2-.9c0-.1.1-.2.2-.2h.4c.1 0 .2.1.2.2l.2.9c.1.3.4.5.7.4l1-.2c.3-.1.5-.4.4-.7l-.2-.9c0-.1 0-.3.1-.4l.8-.4c.3-.2.4-.6.2-.9l-.5-.9c-.2-.3-.6-.4-.9-.2l-.8.4c-.1.1-.3.1-.4 0l-.7-.7c-.2-.2-.5-.3-.8-.3zm0 3c1.4 0 2.5 1.1 2.5 2.5s-1.1 2.5-2.5 2.5-2.5-1.1-2.5-2.5 1.1-2.5 2.5-2.5zm0 1.5c-.6 0-1 .4-1 1s.4 1 1 1 1-.4 1-1-.4-1-1-1z"/>
</svg>