<svg xmlns="http://www.w3.org/2000/svg" viewBox="0 0 48 48" width="48" height="48">
  <path fill="#4a90e2" d="M24 7.5c-.9 0-1.8.3-2.4.9l-2.1 2.1c-.3.3-.9.3-1.2 0l-2.4-1.2c-.9-.6-2.1-.3-2.7.6l-1.5 2.7c-.6.9-.3 2.1.6 2.7l2.4 1.2c.3.3.6.6.3 1.2l-.6 2.7c-.3.9.3 1.8 1.2 2.1l3 .6c.9.3 1.8-.3 2.1-1.2l.6-2.7c0-.3.3-.6.6-.6h1.2c.3 0 .6.3.6.6l.6 2.7c.3.9 1.2 1.5 2.1 1.2l3-.6c.9-.3 1.5-1.2 1.2-2.1l-.6-2.7c0-.3 0-.9.3-1.2l2.4-1.2c.9-.6 1.2-1.8.6-2.7l-1.5-2.7c-.6-.9-1.8-1.2-2.7-.6l-2.4 1.2c-.3.3-.9.3-1.2 0l-2.1-2.1c-.6-.6-1.5-.9-2.4-.9zm0 9c4.2 0 7.5 3.3 7.5 7.5s-3.3 7.5-7.5 7.5-7.5-3.3-7.5-7.5 3.3-7.5 7.5-7.5zm0 4.5c-1.8 0-3 1.2-3 3s1.2 3 3 3 3-1.2 3-3-1.2-3-3-3z"/>
</svg>